<mxfile host="app.diagrams.net" agent="Mozilla/5.0 (Windows NT 10.0; Win64; x64) AppleWebKit/537.36 (KHTML, like Gecko) Chrome/135.0.0.0 Safari/537.36" version="26.2.12">
  <diagram name="Page-1" id="6EzTsTosD53kx3raOyAZ">
    <mxGraphModel dx="2278" dy="777" grid="1" gridSize="10" guides="1" tooltips="1" connect="1" arrows="1" fold="1" page="1" pageScale="1" pageWidth="850" pageHeight="1100" background="light-dark(#ffffff, #121212)" math="0" shadow="0">
      <root>
        <mxCell id="0" />
        <mxCell id="1" parent="0" />
        <mxCell id="baiHuiTagz5AontRy-VD-2" value="Online Car Parking&amp;nbsp; File" style="shape=document;whiteSpace=wrap;html=1;boundedLbl=1;fillColor=#dae8fc;strokeColor=#6c8ebf;" vertex="1" parent="1">
          <mxGeometry x="210" y="40" width="100" height="50" as="geometry" />
        </mxCell>
        <mxCell id="baiHuiTagz5AontRy-VD-3" value="Employee Information File" style="shape=document;whiteSpace=wrap;html=1;boundedLbl=1;fillColor=#dae8fc;strokeColor=#6c8ebf;" vertex="1" parent="1">
          <mxGeometry x="80" y="210" width="100" height="50" as="geometry" />
        </mxCell>
        <mxCell id="baiHuiTagz5AontRy-VD-4" value="Tolls File" style="shape=document;whiteSpace=wrap;html=1;boundedLbl=1;fillColor=#dae8fc;strokeColor=#6c8ebf;" vertex="1" parent="1">
          <mxGeometry x="80" y="40" width="100" height="50" as="geometry" />
        </mxCell>
        <mxCell id="baiHuiTagz5AontRy-VD-5" value="Paid Parking File" style="shape=document;whiteSpace=wrap;html=1;boundedLbl=1;fillColor=#dae8fc;strokeColor=#6c8ebf;" vertex="1" parent="1">
          <mxGeometry x="80" y="130" width="100" height="50" as="geometry" />
        </mxCell>
        <mxCell id="baiHuiTagz5AontRy-VD-6" value="Employee Leave File" style="shape=document;whiteSpace=wrap;html=1;boundedLbl=1;fillColor=#dae8fc;strokeColor=#6c8ebf;" vertex="1" parent="1">
          <mxGeometry x="200" y="130" width="100" height="50" as="geometry" />
        </mxCell>
        <mxCell id="baiHuiTagz5AontRy-VD-7" value="Calendar File" style="shape=document;whiteSpace=wrap;html=1;boundedLbl=1;fillColor=#dae8fc;strokeColor=#6c8ebf;" vertex="1" parent="1">
          <mxGeometry x="200" y="210" width="100" height="50" as="geometry" />
        </mxCell>
        <mxCell id="baiHuiTagz5AontRy-VD-26" value="Informatica" style="rounded=0;whiteSpace=wrap;html=1;" vertex="1" parent="1">
          <mxGeometry x="426.5" y="285" width="120" height="60" as="geometry" />
        </mxCell>
        <mxCell id="baiHuiTagz5AontRy-VD-32" value="" style="edgeStyle=orthogonalEdgeStyle;rounded=0;orthogonalLoop=1;jettySize=auto;html=1;exitX=0.5;exitY=1;exitDx=0;exitDy=0;entryX=0.5;entryY=0;entryDx=0;entryDy=0;entryPerimeter=0;" edge="1" parent="1" source="baiHuiTagz5AontRy-VD-26" target="baiHuiTagz5AontRy-VD-28">
          <mxGeometry relative="1" as="geometry">
            <mxPoint x="371.5" y="460" as="targetPoint" />
          </mxGeometry>
        </mxCell>
        <mxCell id="baiHuiTagz5AontRy-VD-28" value="Store Files as DB Tables" style="shape=cylinder3;whiteSpace=wrap;html=1;boundedLbl=1;backgroundOutline=1;size=15;" vertex="1" parent="1">
          <mxGeometry x="426.5" y="375" width="120" height="80" as="geometry" />
        </mxCell>
        <mxCell id="baiHuiTagz5AontRy-VD-34" value="" style="endArrow=classic;html=1;rounded=0;exitX=0.5;exitY=1;exitDx=0;exitDy=0;exitPerimeter=0;entryX=0.45;entryY=0.033;entryDx=0;entryDy=0;entryPerimeter=0;" edge="1" parent="1" source="baiHuiTagz5AontRy-VD-28" target="baiHuiTagz5AontRy-VD-35">
          <mxGeometry width="50" height="50" relative="1" as="geometry">
            <mxPoint x="171.5" y="509" as="sourcePoint" />
            <mxPoint x="491.5" y="549" as="targetPoint" />
          </mxGeometry>
        </mxCell>
        <mxCell id="baiHuiTagz5AontRy-VD-35" value="Process Data using SQL" style="rounded=0;whiteSpace=wrap;html=1;" vertex="1" parent="1">
          <mxGeometry x="441.5" y="487" width="100" height="60" as="geometry" />
        </mxCell>
        <mxCell id="baiHuiTagz5AontRy-VD-36" value="Store Data in Share Point" style="rounded=0;whiteSpace=wrap;html=1;" vertex="1" parent="1">
          <mxGeometry x="439.5" y="583" width="91" height="60" as="geometry" />
        </mxCell>
        <mxCell id="baiHuiTagz5AontRy-VD-37" value="" style="endArrow=classic;html=1;rounded=0;exitX=0.5;exitY=1;exitDx=0;exitDy=0;entryX=0.567;entryY=-0.017;entryDx=0;entryDy=0;entryPerimeter=0;" edge="1" parent="1" source="baiHuiTagz5AontRy-VD-35" target="baiHuiTagz5AontRy-VD-36">
          <mxGeometry width="50" height="50" relative="1" as="geometry">
            <mxPoint x="166.5" y="459" as="sourcePoint" />
            <mxPoint x="216.5" y="409" as="targetPoint" />
          </mxGeometry>
        </mxCell>
        <mxCell id="baiHuiTagz5AontRy-VD-38" value="Over usage" style="rhombus;whiteSpace=wrap;html=1;" vertex="1" parent="1">
          <mxGeometry x="445" y="675" width="80" height="80" as="geometry" />
        </mxCell>
        <mxCell id="baiHuiTagz5AontRy-VD-39" value="" style="endArrow=classic;html=1;rounded=0;exitX=0.5;exitY=1;exitDx=0;exitDy=0;entryX=0.5;entryY=0;entryDx=0;entryDy=0;" edge="1" parent="1" source="baiHuiTagz5AontRy-VD-36" target="baiHuiTagz5AontRy-VD-38">
          <mxGeometry width="50" height="50" relative="1" as="geometry">
            <mxPoint x="246.5" y="530" as="sourcePoint" />
            <mxPoint x="296.5" y="480" as="targetPoint" />
          </mxGeometry>
        </mxCell>
        <mxCell id="baiHuiTagz5AontRy-VD-40" value="" style="endArrow=classic;html=1;rounded=0;exitX=0.5;exitY=1;exitDx=0;exitDy=0;" edge="1" parent="1" source="baiHuiTagz5AontRy-VD-38">
          <mxGeometry width="50" height="50" relative="1" as="geometry">
            <mxPoint x="246.5" y="530" as="sourcePoint" />
            <mxPoint x="486.5" y="830" as="targetPoint" />
          </mxGeometry>
        </mxCell>
        <mxCell id="baiHuiTagz5AontRy-VD-41" value="Yes" style="rounded=0;whiteSpace=wrap;html=1;" vertex="1" parent="1">
          <mxGeometry x="466.5" y="780" width="40" height="20" as="geometry" />
        </mxCell>
        <mxCell id="baiHuiTagz5AontRy-VD-42" value="Trigger Email to Sales Team and SR" style="rounded=0;whiteSpace=wrap;html=1;" vertex="1" parent="1">
          <mxGeometry x="426.5" y="830" width="120" height="60" as="geometry" />
        </mxCell>
        <mxCell id="baiHuiTagz5AontRy-VD-45" value="&lt;b&gt;INPUT FILES&lt;/b&gt;" style="rounded=0;whiteSpace=wrap;html=1;fillColor=#dae8fc;strokeColor=#6c8ebf;" vertex="1" parent="1">
          <mxGeometry x="-70" y="40" width="60" height="30" as="geometry" />
        </mxCell>
        <mxCell id="baiHuiTagz5AontRy-VD-49" value="Filtered Report" style="shape=document;whiteSpace=wrap;html=1;boundedLbl=1;fillColor=#d5e8d4;strokeColor=#82b366;" vertex="1" parent="1">
          <mxGeometry x="210" y="310" width="100" height="50" as="geometry" />
        </mxCell>
        <mxCell id="baiHuiTagz5AontRy-VD-50" value="Consolidated Data" style="shape=document;whiteSpace=wrap;html=1;boundedLbl=1;fillColor=#d5e8d4;strokeColor=#82b366;" vertex="1" parent="1">
          <mxGeometry x="80" y="310" width="100" height="50" as="geometry" />
        </mxCell>
        <mxCell id="baiHuiTagz5AontRy-VD-51" value="&lt;b&gt;OUTPUT FILES&lt;/b&gt;" style="rounded=0;whiteSpace=wrap;html=1;fillColor=#d5e8d4;strokeColor=#82b366;" vertex="1" parent="1">
          <mxGeometry x="-70" y="310" width="60" height="30" as="geometry" />
        </mxCell>
        <mxCell id="baiHuiTagz5AontRy-VD-52" value="&lt;div&gt;Input Files&lt;/div&gt;&lt;div&gt;&lt;b&gt;&lt;font style=&quot;font-size: 15px;&quot;&gt;* &lt;/font&gt;&lt;/b&gt;All file in xlsx format&lt;/div&gt;" style="rounded=0;whiteSpace=wrap;html=1;" vertex="1" parent="1">
          <mxGeometry x="410" y="40" width="150" height="50" as="geometry" />
        </mxCell>
        <mxCell id="baiHuiTagz5AontRy-VD-53" value="&lt;div&gt;&lt;br&gt;&lt;/div&gt;&lt;div&gt;Convert Files to csv format&lt;/div&gt;" style="rounded=0;whiteSpace=wrap;html=1;" vertex="1" parent="1">
          <mxGeometry x="415.5" y="120" width="140" height="50" as="geometry" />
        </mxCell>
        <mxCell id="baiHuiTagz5AontRy-VD-54" value="Copy to Folder" style="rounded=0;whiteSpace=wrap;html=1;" vertex="1" parent="1">
          <mxGeometry x="426.5" y="200" width="120" height="60" as="geometry" />
        </mxCell>
        <mxCell id="baiHuiTagz5AontRy-VD-56" value="" style="endArrow=classic;html=1;rounded=0;exitX=0.5;exitY=1;exitDx=0;exitDy=0;entryX=0.5;entryY=0;entryDx=0;entryDy=0;" edge="1" parent="1" source="baiHuiTagz5AontRy-VD-52" target="baiHuiTagz5AontRy-VD-53">
          <mxGeometry width="50" height="50" relative="1" as="geometry">
            <mxPoint x="251.5" y="160" as="sourcePoint" />
            <mxPoint x="301.5" y="110" as="targetPoint" />
          </mxGeometry>
        </mxCell>
        <mxCell id="baiHuiTagz5AontRy-VD-57" value="" style="endArrow=classic;html=1;rounded=0;exitX=0.5;exitY=1;exitDx=0;exitDy=0;entryX=0.5;entryY=0;entryDx=0;entryDy=0;" edge="1" parent="1" source="baiHuiTagz5AontRy-VD-53" target="baiHuiTagz5AontRy-VD-54">
          <mxGeometry width="50" height="50" relative="1" as="geometry">
            <mxPoint x="251.5" y="160" as="sourcePoint" />
            <mxPoint x="301.5" y="110" as="targetPoint" />
          </mxGeometry>
        </mxCell>
        <mxCell id="baiHuiTagz5AontRy-VD-58" value="" style="endArrow=classic;html=1;rounded=0;exitX=0.5;exitY=1;exitDx=0;exitDy=0;entryX=0.5;entryY=0;entryDx=0;entryDy=0;" edge="1" parent="1" source="baiHuiTagz5AontRy-VD-54" target="baiHuiTagz5AontRy-VD-26">
          <mxGeometry width="50" height="50" relative="1" as="geometry">
            <mxPoint x="251.5" y="160" as="sourcePoint" />
            <mxPoint x="301.5" y="110" as="targetPoint" />
          </mxGeometry>
        </mxCell>
      </root>
    </mxGraphModel>
  </diagram>
</mxfile>
